#!OML:ASF E:/inclinewalkrobotboard/Project1/Captureday1/Session1/subject1.ASF
:FULLY-SPECIFIED
:DEGREES
51
root 0 0 0 12.006358734383696 66.55907075984452 -2.5788572853706997
lowerback -9.521595098176014 -5.781140400660558 -4.6801383384633635
upperback -10.88780031210551 -6.813560187503565 9.714348965870853
thorax -4.68455257727336 -2.5757573195035786 12.701468919230237
lowerneck -2.563043413092138 -12.478065846013221 -10.553185672329715
upperneck 34.628364550175284 -15.388159361013262 -1.5973696578224894
head 12.899165861398469 -8.06969800281891 -0.7651909603991951
rclavicle 1.060745069322689E-16 -2.3606014105939652E-15
rhumerus 72.96727734841068 -16.53437283002372 7.748358866922345
rradius 54.18264558737252
rwrist 4.972404138363753
rhand 20.768810268898548 -8.687550471680519
rfingers 7.125020000000038
rthumb 45.272503535785944 -32.29897842689387
lclavicle 8.358899962196105E-16 -1.0801863763526096E-14
lhumerus 80.12195841681985 26.337337183297766 21.358333830977486
lradius 53.05524949635584
lwrist -5.981460935973246
lhand 5.7840271750274574 11.18805894843411
lfingers 7.125020000000034
lthumb 31.04030963679504 37.755987497465995
rfemur -66.21275047681516 23.932948095384063 45.34587913406281
rtibia 50.25203570993429
rfoot -19.92339411858029 -33.68986323626228
rtoes 27.229117362438483
lfemur -30.73478013300284 -7.059261333104416E-4 -33.57362644664759
ltibia 58.967443743411366
lfoot -11.30326683453069 5.117292998140087
ltoes -14.641305067510563
52
root 0 0 0 11.950397897358954 66.58938207583284 -2.575585897046844
lowerback -9.510814904786503 -5.776903027975704 -4.679451421051316
upperback -10.859513282735486 -6.810941541192976 9.71482656669512
thorax -4.662443104688577 -2.575481499370956 12.703993454239871
lowerneck -2.548619773576781 -12.460979140804703 -10.534362081685284
upperneck 34.59289425038888 -15.363936499478077 -1.5979610572456728
head 12.88029503229999 -8.057589583260812 -0.7646149911057414
rclavicle -1.0259379671480393E-15 -3.152922027747217E-15
rhumerus 75.25871946781368 -15.814357724872991 4.658830063562036
rradius 54.69085887928291
rwrist 3.223453039345614
rhand 19.909563618225903 -8.392003143390246
rfingers 7.12502000000004
rthumb 44.45669517325493 -32.168737584351135
lclavicle -1.3762494058793089E-16 -1.1849912658813354E-14
lhumerus 84.14376475176257 24.70412268005621 21.995940916316606
lradius 53.22209736441057
lwrist -2.9350456900370165
lhand 8.192965341077759 12.188789012071242
lfingers 7.125020000000034
lthumb 33.33577982765712 38.32831928256067
rfemur -65.40865923987164 23.25685934570538 44.92797097003117
rtibia 50.45259425476855
rfoot -19.926603997318622 -32.89800522449564
rtoes 26.6378709110331
lfemur -29.901235086280547 -0.5667818115616754 -33.1894635794683
ltibia 58.69654745761082
lfoot -10.585639840856725 4.1784172488836315
ltoes -15.618906780883139
53
root 0 0 0 11.885387909268164 66.62381985646194 -2.5636241554693164
lowerback -9.495456693362529 -5.771928748344216 -4.680438301645229
upperback -10.827030638788635 -6.8077891112866205 9.713976456680188
thorax -4.638879242381297 -2.575078599780742 12.706468138811662
lowerneck -2.5336859751910747 -12.43973409687428 -10.511692913226325
upperneck 34.55128122219003 -15.333536111162243 -1.6002506603109152
head 12.858311097462096 -8.042582239693017 -0.7643871736959531
rclavicle -2.3317539753534154E-15 -4.020330332127251E-15
rhumerus 77.79598822178698 -14.977708342140701 0.5913145946433289
rradius 55.039571794348866
rwrist 1.0675578908864551
rhand 18.866448222863927 -8.04904418894431
rfingers 7.125020000000042
rthumb 43.46616875476276 -32.028955552237676
lclavicle -1.59937843311704E-15 -1.295132959843262E-14
lhumerus 88.39408557883483 22.133928021044248 23.043943166661304
lradius 53.53085754170341
lwrist 0.7800564216690944
lhand 10.850394756126292 13.418999033084466
lfingers 7.125020000000033
lthumb 35.86294701549483 39.03761221396783
rfemur -64.49861838552187 22.621357305000444 44.469158769777636
rtibia 50.62777552505056
rfoot -19.801884385998882 -32.09671446293632
rtoes 26.06664995119865
lfemur -29.223313273483 -1.1359126315281518 -32.90050046142539
ltibia 58.23576248469064
lfoot -10.060235357923865 3.464600321420365
ltoes -16.483411821323102
54
root 0 0 0 9.179108029879373 63.61140744255846 -1.0773607880802434
lowerback -7.581611930332849 -4.307078146741576 -3.6695058277001733
upperback -9.368381998331959 -4.953534275608997 9.062472514497646
thorax -4.511662448017027 -1.7774589505104286 11.557304874535067
lowerneck -2.4442769813742764 -11.412336590868325 -8.74017773266049
upperneck 34.43674606496708 -13.900978656067782 -2.986336252226719
head 12.437727447709179 -7.354230339784566 -1.2438087796999884
rclavicle -1.3131697284141047E-15 -2.7571786868156058E-15
rhumerus 72.7357924821925 -11.643685544936995 -28.821697573129068
rradius 47.2856661866133
rwrist -5.593434419438875
rhand 13.158219910645567 -4.490210090068249
rfingers 7.125020000000045
rthumb 38.02389024707768 -29.406853365649614
lclavicle -4.199919077577727E-15 -1.0815719705107777E-14
lhumerus 74.94537109949313 17.149483404229848 35.53915437771255
lradius 49.448495460730555
lwrist 9.9776867290986
lhand 13.225883393911726 18.737168633165293
lfingers 7.125020000000046
lthumb 38.12677943152473 43.99009271953841
rfemur -55.609123724442355 17.216346263981947 41.41258882985606
rtibia 53.08708251451993
rfoot -22.565392686615493 -18.01702247575683
rtoes 20.472711346112092
lfemur -30.65722644128247 -1.354351103623312 -30.683576985109358
ltibia 57.79365197134579
lfoot -9.507740953952073 2.68096430774907
ltoes -15.504152625472367
